# xmcd CD database file
#
# Track frame offsets:
#	150
#	15544
#	27545
#	48697
#	62586
#	82792
#	98909
#	134890
#	156912
#	179506
#	192655
#	219606
#	239608
#	254218
#
# Disc length: 3588 seconds
#
# Revision: 0
# Processed by: cddbd v1.5.2PL0 Copyright (c) Steve Scherf et al.
# Submitted via: CDex 1.70beta2
#
DISCID=d80e020e
DTITLE=Various Artist - Jazz from the Vaults CD1
DYEAR=2005
DGENRE=Jazz
TTITLE0=Art Tatum - Indiana
TTITLE1=Charlie parker - Scrapple from the Apple
TTITLE2=Dave Brubeck - In Your own sweet way (live)
TTITLE3=Duke Ellington - C Jam Blues
TTITLE4=Ella Fitzgerald - Mack the Knife (live)
TTITLE5=Lester Young - D.B. Blues (live)
TTITLE6=Miles Davis - I Thought about You (live)
TTITLE7=Sonny Rollins - Like Someone In Love
TTITLE8=Stan Getz - My Funny Valentine
TTITLE9=Thelonius Monk - In Walked Bud
TTITLE10=Ben Webster - Sweet Lorraine
TTITLE11=Carmen McRae - Body and Soul (live)
TTITLE12=Django Reinhardt - Daphne
TTITLE13=James P Johnson - Carolina Shout
EXTD=YEAR: 2005
EXTT0=
EXTT1=
EXTT2=
EXTT3=
EXTT4=
EXTT5=
EXTT6=
EXTT7=
EXTT8=
EXTT9=
EXTT10=
EXTT11=
EXTT12=
EXTT13=
PLAYORDER=
